<svg width="377" height="622" viewBox="0 0 377 622" fill="none" xmlns="http://www.w3.org/2000/svg">
<path d="M0 0H377V622H0V0Z" fill="#035CA2"/>
<mask id="mask0_322_104" style="mask-type:alpha" maskUnits="userSpaceOnUse" x="0" y="0" width="377" height="622">
<path d="M0 0H377V622H0V0Z" fill="#035CA2"/>
</mask>
<g mask="url(#mask0_322_104)">
<ellipse cx="38.9398" cy="61.0563" rx="38.9398" ry="61.0563" transform="matrix(-0.931661 0.363329 0.363329 0.931661 284.199 64.8906)" fill="#044F8B"/>
<path d="M-110.153 646.231L129.143 493.955C134.381 489.419 152.396 477.941 182.554 468.317C220.251 456.287 218.148 485.604 209.768 499.737C201.387 513.87 96.15 543.156 86.7181 571.948C79.1726 594.98 102.418 592.719 114.984 588.709C127.549 584.699 172.368 569.25 251.115 539.537C349.549 502.395 357.929 488.263 351.651 473.079C345.373 457.894 316.056 455.792 289.894 409.714C263.731 363.636 295.15 336.422 326.044 316.537C352.258 299.664 545.311 258.594 560.08 237.554C579.773 209.499 544.556 214.339 524.486 220.266C479.634 229.327 363.828 242.639 259.057 223.329C128.182 199.209 94.6904 152.605 88.9382 130.092C83.186 107.579 122.46 73.5619 108.328 65.1814C91.158 58.0564 76.042 70.2327 70.6302 77.2115C54.7452 93.2616 22.765 128.294 21.9239 140.02C20.8726 154.679 41.8089 170.914 76.3523 202.859C110.896 234.805 136.007 295.541 116.618 360.453C97.2283 425.364 -114.854 609.06 -131.089 629.996C-144.918 658.472 -122.894 652.685 -110.153 646.231Z" fill="#044F8B"/>
</g>
</svg>
