<svg width="18" height="18" viewBox="0 0 18 18" fill="none" xmlns="http://www.w3.org/2000/svg">
<g id="instagram (29) 1" clip-path="url(#clip0_263_1502)">
<g id="Group">
<path id="Vector" d="M12.6377 0H5.3623C2.40551 0 0 2.40551 0 5.3623V12.6377C0 15.5945 2.40551 18 5.3623 18H12.6377C15.5945 18 18 15.5945 18 12.6377V5.3623C18 2.40551 15.5945 0 12.6377 0ZM16.1892 12.6377C16.1892 14.5991 14.5991 16.1892 12.6377 16.1892H5.3623C3.40088 16.1892 1.8108 14.5991 1.8108 12.6377V5.3623C1.8108 3.40084 3.40088 1.8108 5.3623 1.8108H12.6377C14.5991 1.8108 16.1892 3.40084 16.1892 5.3623V12.6377Z" fill="#D62976"/>
<path id="Vector_2" d="M8.99919 4.34375C6.43218 4.34375 4.34375 6.43218 4.34375 8.99916C4.34375 11.5661 6.43218 13.6546 8.99919 13.6546C11.5662 13.6546 13.6546 11.5662 13.6546 8.99916C13.6546 6.43214 11.5662 4.34375 8.99919 4.34375ZM8.99919 11.8438C7.42813 11.8438 6.15455 10.5703 6.15455 8.99919C6.15455 7.42813 7.42816 6.15455 8.99919 6.15455C10.5703 6.15455 11.8438 7.42813 11.8438 8.99919C11.8438 10.5702 10.5702 11.8438 8.99919 11.8438Z" fill="#D62976"/>
<path id="Vector_3" d="M13.6624 5.4967C14.2785 5.4967 14.778 4.99726 14.778 4.38116C14.778 3.76507 14.2785 3.26562 13.6624 3.26562C13.0463 3.26562 12.5469 3.76507 12.5469 4.38116C12.5469 4.99726 13.0463 5.4967 13.6624 5.4967Z" fill="#D62976"/>
</g>
</g>
<defs>
<clipPath id="clip0_263_1502">
<rect width="18" height="18" fill="white"/>
</clipPath>
</defs>
</svg>
