<svg width="14" height="14" viewBox="0 0 14 14" fill="none" xmlns="http://www.w3.org/2000/svg">
<g id="mail (11) 1">
<g id="Group">
<g id="Group_2">
<path id="Vector" d="M12.7695 2.07812H1.23047C0.550621 2.07812 0 2.63216 0 3.30859V10.6914C0 11.3719 0.554668 11.9219 1.23047 11.9219H12.7695C13.4437 11.9219 14 11.3742 14 10.6914V3.30859C14 2.63337 13.4516 2.07812 12.7695 2.07812ZM12.5972 2.89844C12.3458 3.1485 8.01946 7.45207 7.87008 7.60066C7.63766 7.83308 7.32867 7.96105 7 7.96105C6.67133 7.96105 6.36234 7.83305 6.12916 7.59989C6.0287 7.49995 1.75008 3.2439 1.40279 2.89844H12.5972ZM0.820312 10.5244V3.47607L4.3651 7.00219L0.820312 10.5244ZM1.40331 11.1016L4.9467 7.5807L5.54988 8.1807C5.93723 8.56805 6.45222 8.78136 7 8.78136C7.54778 8.78136 8.06277 8.56805 8.44936 8.18147L9.0533 7.5807L12.5967 11.1016H1.40331ZM13.1797 10.5244L9.6349 7.00219L13.1797 3.47607V10.5244Z" fill="#035CA2"/>
</g>
</g>
</g>
</svg>
