<svg width="14" height="14" viewBox="0 0 14 14" fill="none" xmlns="http://www.w3.org/2000/svg">
<g id="phone-call (13) 1" clip-path="url(#clip0_245_7034)">
<g id="Layer 3">
<path id="Vector" d="M13.1403 9.88488C13.1171 9.86563 10.4969 7.9905 9.786 8.11344C9.44431 8.17381 9.24875 8.40656 8.85719 8.87337C8.79419 8.94862 8.64237 9.12844 8.52513 9.25663C8.27764 9.176 8.03625 9.07775 7.80281 8.96263C6.59773 8.37594 5.62406 7.40227 5.03737 6.19719C4.92225 5.96375 4.824 5.72236 4.74337 5.47487C4.872 5.35719 5.05225 5.20538 5.12925 5.14062C5.59344 4.75125 5.82619 4.55569 5.88656 4.21356C6.01038 3.50525 4.13438 0.882875 4.11513 0.85925C4.02969 0.738087 3.91842 0.637404 3.78935 0.56447C3.66028 0.491535 3.51662 0.448168 3.36875 0.4375C2.60837 0.4375 0.4375 3.25325 0.4375 3.72794C0.4375 3.7555 0.477313 6.55725 3.93225 10.0717C7.44275 13.5227 10.2445 13.5625 10.2721 13.5625C10.7467 13.5625 13.5625 11.3916 13.5625 10.6312C13.5518 10.4833 13.5084 10.3396 13.4354 10.2105C13.3624 10.0815 13.2616 9.97022 13.1403 9.88488ZM10.2239 12.6849C9.84156 12.6534 7.49044 12.3432 4.55088 9.45525C1.64806 6.49994 1.34575 4.14225 1.31556 3.77694C1.88903 2.87684 2.5816 2.05845 3.37444 1.344C3.39194 1.3615 3.41513 1.38775 3.44488 1.42188C4.05292 2.25191 4.57672 3.14049 5.0085 4.07444C4.86809 4.21569 4.71968 4.34877 4.564 4.473C4.32258 4.65695 4.1009 4.86544 3.9025 5.09513L3.79619 5.24388L3.82769 5.42369C3.92028 5.82476 4.06208 6.21284 4.24987 6.57912C4.9227 7.96076 6.03915 9.07705 7.42088 9.74969C7.78708 9.93775 8.17519 10.0797 8.57631 10.1723L8.75612 10.2038L8.90487 10.0975C9.13543 9.89822 9.34479 9.67567 9.52962 9.43338C9.66656 9.26975 9.84988 9.05144 9.919 8.98975C10.8556 9.4211 11.7465 9.94553 12.5781 10.5551C12.6144 10.5857 12.6398 10.6094 12.6569 10.6247C11.9425 11.4178 11.1241 12.1105 10.2239 12.684V12.6849Z" fill="#035CA2"/>
</g>
</g>
<defs>
<clipPath id="clip0_245_7034">
<rect width="14" height="14" fill="white"/>
</clipPath>
</defs>
</svg>
