<svg width="22" height="22" viewBox="0 0 22 22" fill="none" xmlns="http://www.w3.org/2000/svg">
<g id="search (18) 1">
<g id="layer1">
<path id="circle2017" d="M10.0295 1.76953C5.48397 1.76953 1.78125 5.47224 1.78125 10.0178C1.78125 14.5632 5.48397 18.2732 10.0295 18.2732C11.971 18.2732 13.7566 17.5928 15.1678 16.4631L18.6035 19.897C18.7769 20.0632 19.0085 20.1549 19.2486 20.1524C19.4888 20.15 19.7185 20.0536 19.8884 19.8839C20.0583 19.7142 20.1551 19.4847 20.1579 19.2445C20.1607 19.0044 20.0693 18.7726 19.9033 18.599L16.4676 15.1633C17.5982 13.7499 18.2795 11.9615 18.2795 10.0178C18.2795 5.47224 14.575 1.76953 10.0295 1.76953ZM10.0295 3.60289C13.5841 3.60289 16.4443 6.46308 16.4443 10.0178C16.4443 13.5724 13.5841 16.4398 10.0295 16.4398C6.47478 16.4398 3.61458 13.5724 3.61458 10.0178C3.61458 6.46308 6.47478 3.60289 10.0295 3.60289Z" fill="#303030"/>
</g>
</g>
</svg>
