<svg width="24" height="24" viewBox="0 0 24 24" fill="none" xmlns="http://www.w3.org/2000/svg">
<g id="viber 1" clip-path="url(#clip0_245_952)">
<g id="Group">
<path id="Vector" d="M23.1551 13.8906C23.8711 7.86358 22.8111 4.05858 20.8991 2.33758L20.9001 2.33658C17.8141 -0.602417 7.39208 -1.03742 3.70008 2.46858C2.04208 4.18358 1.45808 6.70058 1.39408 9.81658C1.33008 12.9336 1.25408 18.7726 6.69508 20.3566H6.70008L6.69508 22.7756C6.69508 22.7756 6.65808 23.7556 7.28408 23.9526C8.00008 24.1846 8.32408 23.7296 10.5511 21.0696C14.2751 21.3926 17.1351 20.6526 17.4601 20.5446C18.2121 20.2926 22.4671 19.7296 23.1551 13.8906ZM10.9181 19.3676C10.9181 19.3676 8.56108 22.3066 7.82808 23.0696C7.58808 23.3176 7.32508 23.2946 7.32908 22.8026C7.32908 22.4796 7.34708 18.7866 7.34708 18.7866C2.73408 17.4646 3.00608 12.4926 3.05608 9.89158C3.10608 7.28958 3.58208 5.15858 4.98608 3.72358C8.22508 0.686583 17.3621 1.36558 19.6901 3.55358C22.5361 6.07658 21.5231 13.2046 21.5291 13.4476C20.9441 18.3216 17.4961 18.6306 16.8621 18.8416C16.5911 18.9316 14.0761 19.5786 10.9181 19.3676Z" fill="#8E24AA"/>
<path id="Vector_2" d="M12.2223 4.29688C11.8373 4.29688 11.8373 4.89688 12.2223 4.90188C15.2093 4.92488 17.6693 7.00688 17.6963 10.8259C17.6963 11.2289 18.2863 11.2239 18.2813 10.8209C18.2493 6.70588 15.5623 4.31988 12.2223 4.29688Z" fill="#8E24AA"/>
<path id="Vector_3" d="M16.1509 10.1891C16.1419 10.5871 16.7309 10.6061 16.7359 10.2031C16.7849 7.93413 15.3859 6.06513 12.7569 5.86813C12.3719 5.84013 12.3319 6.44513 12.7159 6.47313C14.9959 6.64613 16.1969 8.20213 16.1509 10.1891Z" fill="#8E24AA"/>
<path id="Vector_4" d="M15.5212 12.7722C15.0272 12.4862 14.5242 12.6642 14.3162 12.9452L13.8812 13.5082C13.6602 13.7942 13.2472 13.7562 13.2472 13.7562C10.2332 12.9592 9.42721 9.80515 9.42721 9.80515C9.42721 9.80515 9.39021 9.37815 9.66621 9.14915L10.2102 8.69915C10.4822 8.48315 10.6542 7.96315 10.3772 7.45215C9.63721 6.11515 9.14021 5.65415 8.88721 5.30015C8.62121 4.96715 8.22121 4.89215 7.80521 5.11715H7.79621C6.93121 5.62315 5.98421 6.57015 6.28721 7.54515C6.80421 8.57315 7.75421 11.8502 10.7822 14.3262C12.2052 15.4972 14.4572 16.6972 15.4132 16.9742L15.4222 16.9882C16.3642 17.3022 17.2802 16.3182 17.7692 15.4272V15.4202C17.9862 14.9892 17.9142 14.5812 17.5972 14.3142C17.0352 13.7662 16.1872 13.1612 15.5212 12.7722Z" fill="#8E24AA"/>
<path id="Vector_5" d="M13.1693 8.10173C14.1303 8.15773 14.5963 8.65973 14.6463 9.69073C14.6643 10.0937 15.2493 10.0657 15.2313 9.66273C15.1673 8.31673 14.4653 7.56673 13.2013 7.49673C12.8163 7.47373 12.7803 8.07873 13.1693 8.10173Z" fill="#8E24AA"/>
</g>
</g>
<defs>
<clipPath id="clip0_245_952">
<rect width="24" height="24" fill="white"/>
</clipPath>
</defs>
</svg>
