<svg width="9" height="9" viewBox="0 0 9 9" fill="none" xmlns="http://www.w3.org/2000/svg">
<g id="right-arrow - 2024-08-04T153042.247 1" clip-path="url(#clip0_263_1133)">
<g id="Group">
<g id="Group_2">
<path id="Vector" d="M4.14882 6.99933L0.143779 2.99422C0.0510727 2.90158 -4.03218e-08 2.77792 -3.45584e-08 2.64607C-2.87949e-08 2.51422 0.0510727 2.39056 0.143779 2.29793L0.438655 2.00298C0.6308 1.81105 0.94309 1.81105 1.13494 2.00298L4.49813 5.36617L7.86506 1.99925C7.95776 1.90662 8.08135 1.85547 8.21313 1.85547C8.34505 1.85547 8.46864 1.90662 8.56142 1.99925L8.85622 2.2942C8.94893 2.3869 9 2.51049 9 2.64234C9 2.77419 8.94893 2.89785 8.85622 2.99048L4.84752 6.99933C4.75452 7.09218 4.63035 7.14318 4.49835 7.14289C4.36584 7.14318 4.24175 7.09218 4.14882 6.99933Z" fill="#292929"/>
</g>
</g>
</g>
<defs>
<clipPath id="clip0_263_1133">
<rect width="9" height="9" fill="white" transform="matrix(-4.37114e-08 1 1 4.37114e-08 0 0)"/>
</clipPath>
</defs>
</svg>
