<svg width="999" height="637" viewBox="0 0 999 637" fill="none" xmlns="http://www.w3.org/2000/svg">
<path d="M0 0H999V637H0V0Z" fill="#035CA2"/>
<mask id="mask0_322_23" style="mask-type:alpha" maskUnits="userSpaceOnUse" x="0" y="0" width="999" height="637">
<path d="M0 0H999V637H0V0Z" fill="#035CA2"/>
</mask>
<g mask="url(#mask0_322_23)">
<ellipse cx="39.2565" cy="61.5527" rx="39.2565" ry="61.5527" transform="matrix(-0.931661 0.363329 0.363329 0.931661 274.617 59.7344)" fill="#044F8B"/>
<path d="M-122.943 645.801L118.299 492.287C123.579 487.714 141.741 476.143 172.144 466.441C210.148 454.313 208.028 483.868 199.579 498.116C191.131 512.363 85.0376 541.888 75.529 570.913C67.9222 594.134 91.3564 591.853 104.024 587.811C116.692 583.768 161.875 568.194 241.262 538.239C340.497 500.796 348.945 486.548 342.616 471.24C336.287 455.933 306.732 453.813 280.357 407.361C253.981 360.908 285.656 333.472 316.801 313.426C343.229 296.416 537.851 255.012 552.74 233.8C572.593 205.518 537.09 210.397 516.856 216.372C471.64 225.507 354.892 238.927 249.269 219.46C117.331 195.144 83.5662 148.161 77.7672 125.465C71.9682 102.769 111.562 68.4753 97.3143 60.0266C80.0051 52.8437 64.7661 65.119 59.3103 72.1545C43.2961 88.3352 11.0559 123.652 10.208 135.474C9.14812 150.252 30.2546 166.619 65.0789 198.824C99.9032 231.029 125.219 292.259 105.672 357.699C86.1247 423.138 -127.682 608.327 -144.049 629.434C-157.991 658.141 -135.787 652.307 -122.943 645.801Z" fill="#044F8B"/>
<path d="M640.21 933.782L600.381 864.439L1316.08 108.891L1328.49 120.658L640.21 933.782Z" fill="url(#paint0_linear_322_23)"/>
<path d="M640.808 739.308L617.549 705.18L1260.88 69.194L1282.62 87.0251L640.808 739.308Z" fill="url(#paint1_linear_322_23)"/>
<path d="M522.879 718.504L478.785 636.759L1195.1 8.57131L1253.21 64.6012L605.896 701.557L522.879 718.504Z" fill="url(#paint2_linear_322_23)"/>
<path d="M461.306 631.33C453.149 628.797 398.678 640.367 372.462 646.468L1173.71 0.283489L1191.19 5.71206L461.306 631.33Z" fill="url(#paint3_linear_322_23)"/>
</g>
<defs>
<linearGradient id="paint0_linear_322_23" x1="1343.05" y1="60.7431" x2="524.228" y2="750.825" gradientUnits="userSpaceOnUse">
<stop stop-color="#035CA2"/>
<stop offset="1" stop-color="#00467D"/>
</linearGradient>
<linearGradient id="paint1_linear_322_23" x1="1385.89" y1="-36.9619" x2="623.885" y2="665.68" gradientUnits="userSpaceOnUse">
<stop stop-color="#035CA2"/>
<stop offset="1" stop-color="#00467D"/>
</linearGradient>
<linearGradient id="paint2_linear_322_23" x1="1183.07" y1="-63.0462" x2="628.052" y2="771.883" gradientUnits="userSpaceOnUse">
<stop stop-color="#035CA2"/>
<stop offset="1" stop-color="#00467D"/>
</linearGradient>
<linearGradient id="paint3_linear_322_23" x1="1183.07" y1="-63.0462" x2="628.052" y2="771.883" gradientUnits="userSpaceOnUse">
<stop stop-color="#035CA2"/>
<stop offset="1" stop-color="#00467D"/>
</linearGradient>
</defs>
</svg>
