<svg width="1929" height="810" viewBox="0 0 1929 810" fill="none" xmlns="http://www.w3.org/2000/svg">
<rect width="1929" height="810" fill="#035CA2"/>
<mask id="mask0_263_2144" style="mask-type:alpha" maskUnits="userSpaceOnUse" x="0" y="0" width="1929" height="810">
<rect width="1929" height="810" fill="#035CA2"/>
</mask>
<g mask="url(#mask0_263_2144)">
<path d="M-72.3459 803.671L267.001 587.727C274.429 581.295 299.976 565.018 342.743 551.37C396.202 534.31 393.22 575.884 381.335 595.926C369.451 615.968 220.213 657.499 206.838 698.328C196.137 730.991 229.102 727.784 246.921 722.097C264.741 716.411 328.298 694.503 439.97 652.367C579.559 599.696 591.444 579.654 582.541 558.122C573.638 536.589 532.064 533.607 494.962 468.264C457.861 402.92 502.417 364.328 546.228 336.129C583.402 312.201 857.171 253.96 878.116 224.122C906.042 184.338 856.1 191.201 827.639 199.606C764.035 212.456 599.81 231.334 451.233 203.951C265.639 169.745 218.143 103.656 209.986 71.73C201.829 39.8038 257.524 -8.43551 237.482 -20.32C213.134 -30.424 191.698 -13.1567 184.023 -3.26009C161.497 19.5007 116.145 69.1798 114.953 85.8096C113.462 106.597 143.152 129.62 192.138 174.922C241.124 220.224 276.735 306.354 249.239 398.406C221.742 490.457 -79.0122 750.957 -102.036 780.647C-121.647 821.029 -90.414 812.822 -72.3459 803.671Z" fill="#044F8B"/>
<ellipse cx="55.2208" cy="86.5843" rx="55.2208" ry="86.5843" transform="matrix(-0.931661 0.363329 0.363329 0.931661 486.891 -20.7344)" fill="#044F8B"/>
<path d="M1113.94 1254.46L1059.22 1159.19L2042.56 121.087L2059.61 137.255L1113.94 1254.46Z" fill="url(#paint0_linear_263_2144)"/>
<path d="M1114.76 987.261L1082.8 940.371L1966.72 66.5465L1996.59 91.0459L1114.76 987.261Z" fill="url(#paint1_linear_263_2144)"/>
<path d="M952.728 958.676L892.145 846.36L1876.33 -16.7489L1956.18 60.2343L1066.79 935.391L952.728 958.676Z" fill="url(#paint2_linear_263_2144)"/>
<path d="M868.128 838.902C856.921 835.421 782.08 851.317 746.061 859.701L1846.95 -28.1361L1870.97 -20.6774L868.128 838.902Z" fill="url(#paint3_linear_263_2144)"/>
</g>
<defs>
<linearGradient id="paint0_linear_263_2144" x1="2079.62" y1="54.9333" x2="954.583" y2="1003.08" gradientUnits="userSpaceOnUse">
<stop stop-color="#035CA2"/>
<stop offset="1" stop-color="#00467D"/>
</linearGradient>
<linearGradient id="paint1_linear_263_2144" x1="2138.47" y1="-79.3081" x2="1091.51" y2="886.099" gradientUnits="userSpaceOnUse">
<stop stop-color="#035CA2"/>
<stop offset="1" stop-color="#00467D"/>
</linearGradient>
<linearGradient id="paint2_linear_263_2144" x1="1859.81" y1="-115.149" x2="1097.23" y2="1032.02" gradientUnits="userSpaceOnUse">
<stop stop-color="#035CA2"/>
<stop offset="1" stop-color="#00467D"/>
</linearGradient>
<linearGradient id="paint3_linear_263_2144" x1="1859.81" y1="-115.149" x2="1097.23" y2="1032.02" gradientUnits="userSpaceOnUse">
<stop stop-color="#035CA2"/>
<stop offset="1" stop-color="#00467D"/>
</linearGradient>
</defs>
</svg>
