<svg width="18" height="18" viewBox="0 0 18 18" fill="none" xmlns="http://www.w3.org/2000/svg">
<g id="close (62) 1" clip-path="url(#clip0_263_1550)">
<path id="Vector" d="M10.6491 9.01558L17.6579 2.00652C18.114 1.55061 18.114 0.813468 17.6579 0.357558C17.202 -0.0983525 16.4649 -0.0983525 16.009 0.357558L8.9999 7.36661L1.99106 0.357558C1.53493 -0.0983525 0.798003 -0.0983525 0.342093 0.357558C-0.114031 0.813468 -0.114031 1.55061 0.342093 2.00652L7.35094 9.01558L0.342093 16.0246C-0.114031 16.4805 -0.114031 17.2177 0.342093 17.6736C0.5693 17.901 0.868044 18.0153 1.16657 18.0153C1.4651 18.0153 1.76364 17.901 1.99106 17.6736L8.9999 10.6645L16.009 17.6736C16.2364 17.901 16.5349 18.0153 16.8334 18.0153C17.132 18.0153 17.4305 17.901 17.6579 17.6736C18.114 17.2177 18.114 16.4805 17.6579 16.0246L10.6491 9.01558Z" fill="#035CA2"/>
</g>
<defs>
<clipPath id="clip0_263_1550">
<rect width="18" height="18" fill="white"/>
</clipPath>
</defs>
</svg>
