<svg width="20" height="20" viewBox="0 0 20 20" fill="none" xmlns="http://www.w3.org/2000/svg">
<g id="email 1" clip-path="url(#clip0_245_972)">
<g id="Group">
<g id="Group_2">
<path id="Vector" d="M12.9592 10.832L11.2842 12.5127C10.6049 13.1944 9.40979 13.2091 8.71584 12.5127L7.04073 10.832L1.02448 16.8678C1.24842 16.9714 1.49533 17.0332 1.75783 17.0332H18.2422C18.5047 17.0332 18.7515 16.9714 18.9754 16.8679L12.9592 10.832Z" fill="#035CA2"/>
</g>
</g>
<g id="Group_3">
<g id="Group_4">
<path id="Vector_2" d="M18.2422 2.96875H1.75782C1.49532 2.96875 1.2484 3.03055 1.02454 3.1341L7.45333 9.58422C7.45375 9.58465 7.45426 9.58473 7.45469 9.58516C7.45512 9.58559 7.4552 9.58617 7.4552 9.58617L9.54555 11.6834C9.76758 11.9055 10.2325 11.9055 10.4545 11.6834L12.5445 9.58652C12.5445 9.58652 12.545 9.58559 12.5454 9.58516C12.5454 9.58516 12.5463 9.58465 12.5468 9.58422L18.9754 3.13406C18.7515 3.03047 18.5047 2.96875 18.2422 2.96875Z" fill="#035CA2"/>
</g>
</g>
<g id="Group_5">
<g id="Group_6">
<path id="Vector_3" d="M0.186953 3.95312C0.0710937 4.18742 0 4.4475 0 4.72609V15.273C0 15.5516 0.0710156 15.8116 0.186914 16.0459L6.21359 9.99973L0.186953 3.95312Z" fill="#035CA2"/>
</g>
</g>
<g id="Group_7">
<g id="Group_8">
<path id="Vector_4" d="M19.8137 3.95312L13.7871 9.99981L19.8137 16.0461C19.9296 15.8118 20.0007 15.5517 20.0007 15.273V4.72617C20.0007 4.4475 19.9296 4.18742 19.8137 3.95312Z" fill="#035CA2"/>
</g>
</g>
</g>
<defs>
<clipPath id="clip0_245_972">
<rect width="20" height="20" fill="white"/>
</clipPath>
</defs>
</svg>
