<svg width="20" height="20" viewBox="0 0 20 20" fill="none" xmlns="http://www.w3.org/2000/svg">
<path d="M14.3621 12.7733C14.2236 11.8321 13.7523 10.9717 13.0337 10.3482C12.3151 9.72469 11.3968 9.37941 10.4454 9.375H9.55875C8.60738 9.37941 7.68911 9.72469 6.97051 10.3482C6.25192 10.9717 5.78061 11.8321 5.64209 12.7733L5.21709 15.745C5.20351 15.8411 5.21248 15.939 5.24329 16.0309C5.2741 16.1229 5.3259 16.2065 5.39459 16.275C5.56126 16.4417 6.58375 17.2917 10.0029 17.2917C13.4221 17.2917 14.4421 16.445 14.6113 16.275C14.6799 16.2065 14.7317 16.1229 14.7626 16.0309C14.7934 15.939 14.8023 15.8411 14.7888 15.745L14.3621 12.7733Z" fill="#035CA2"/>
<path d="M6.30004 9.83344C5.49465 10.5759 4.97062 11.5739 4.81671 12.6584L4.50837 14.7918C2.03337 14.7751 1.28337 13.8751 1.15837 13.6918C1.11006 13.6252 1.07557 13.5496 1.05697 13.4694C1.03836 13.3893 1.03601 13.3062 1.05004 13.2251L1.23337 12.1918C1.32889 11.6517 1.55322 11.1427 1.88735 10.7078C2.22148 10.2729 2.65554 9.92499 3.15275 9.69357C3.64995 9.46214 4.19563 9.35401 4.74351 9.37836C5.29139 9.40271 5.82533 9.55882 6.30004 9.83344Z" fill="#035CA2"/>
<path d="M18.9492 13.2251C18.9633 13.3062 18.9609 13.3893 18.9423 13.4694C18.9237 13.5496 18.8892 13.6252 18.8409 13.6918C18.7159 13.8751 17.9659 14.7751 15.4909 14.7918L15.1826 12.6584C15.0286 11.5739 14.5046 10.5759 13.6992 9.83344C14.1739 9.55882 14.7079 9.40271 15.2557 9.37836C15.8036 9.35401 16.3493 9.46214 16.8465 9.69357C17.3437 9.92499 17.7778 10.2729 18.1119 10.7078C18.446 11.1427 18.6704 11.6517 18.7659 12.1918L18.9492 13.2251Z" fill="#035CA2"/>
<path d="M6.44297 8C6.2332 8.2975 5.95472 8.53997 5.6312 8.70681C5.30767 8.87365 4.94865 8.95994 4.58464 8.95833C4.22152 8.95833 3.8636 8.87205 3.54037 8.70658C3.21714 8.54111 2.93786 8.30121 2.72554 8.00663C2.51322 7.71205 2.37394 7.37124 2.31918 7.01227C2.26442 6.6533 2.29574 6.28646 2.41057 5.94198C2.5254 5.59749 2.72044 5.28523 2.97963 5.03091C3.23882 4.77659 3.55473 4.58751 3.90134 4.47924C4.24794 4.37097 4.61531 4.34661 4.97317 4.40818C5.33103 4.46974 5.66914 4.61546 5.95964 4.83333C5.87608 5.16008 5.83408 5.49607 5.83464 5.83333C5.83527 6.59762 6.0457 7.34707 6.44297 8Z" fill="#035CA2"/>
<path d="M17.7086 6.66667C17.7088 6.96768 17.6497 7.26577 17.5346 7.54391C17.4195 7.82205 17.2507 8.07477 17.0379 8.28761C16.825 8.50045 16.5723 8.66925 16.2942 8.78434C16.016 8.89943 15.7179 8.95855 15.4169 8.95833C15.0529 8.95994 14.6939 8.87365 14.3704 8.70681C14.0468 8.53997 13.7684 8.2975 13.5586 8C13.9559 7.34708 14.1663 6.59762 14.1669 5.83333C14.1675 5.49607 14.1255 5.16009 14.0419 4.83333C14.3824 4.57798 14.7873 4.42248 15.2111 4.38426C15.635 4.34604 16.0611 4.42661 16.4418 4.61694C16.8225 4.80727 17.1426 5.09984 17.3663 5.46187C17.5901 5.8239 17.7086 6.24108 17.7086 6.66667Z" fill="#035CA2"/>
<path d="M10 8.96094C11.7259 8.96094 13.125 7.56183 13.125 5.83594C13.125 4.11005 11.7259 2.71094 10 2.71094C8.27411 2.71094 6.875 4.11005 6.875 5.83594C6.875 7.56183 8.27411 8.96094 10 8.96094Z" fill="#035CA2"/>
</svg>
