<svg width="7" height="7" viewBox="0 0 7 7" fill="none" xmlns="http://www.w3.org/2000/svg">
<g id="right-arrow - 2024-08-10T002816.467 1">
<g id="Group">
<g id="Group_2">
<path id="Vector" d="M5.44414 3.22686L2.32905 0.111828C2.257 0.0397233 2.16083 0 2.05827 0C1.95572 0 1.85954 0.0397233 1.78749 0.111828L1.55809 0.341176C1.40881 0.490622 1.40881 0.733514 1.55809 0.882733L4.17391 3.49855L1.55519 6.11727C1.48314 6.18937 1.44336 6.28549 1.44336 6.38799C1.44336 6.4906 1.48314 6.58672 1.55519 6.65888L1.78459 6.88817C1.8567 6.96028 1.95282 7 2.05537 7C2.15792 7 2.2541 6.96028 2.32615 6.88817L5.44414 3.77029C5.51636 3.69796 5.55603 3.60139 5.5558 3.49872C5.55603 3.39566 5.51636 3.29914 5.44414 3.22686Z" fill="#F9E725"/>
</g>
</g>
</g>
</svg>
