<svg width="19" height="19" viewBox="0 0 19 19" fill="none" xmlns="http://www.w3.org/2000/svg">
<g clip-path="url(#clip0_245_3437)">
<path d="M9.5 0.59375C7.73851 0.59375 6.01658 1.11609 4.55196 2.09472C3.08733 3.07335 1.9458 4.46432 1.2717 6.09173C0.597609 7.71913 0.421235 9.50988 0.764885 11.2375C1.10853 12.9652 1.95677 14.5521 3.20233 15.7977C4.4479 17.0432 6.03484 17.8915 7.76248 18.2351C9.49013 18.5788 11.2809 18.4024 12.9083 17.7283C14.5357 17.0542 15.9267 15.9127 16.9053 14.448C17.8839 12.9834 18.4063 11.2615 18.4063 9.5C18.4036 7.13874 17.4644 4.87495 15.7947 3.20528C14.1251 1.53561 11.8613 0.596422 9.5 0.59375ZM9.5 17.2188C8.27391 17.2188 6.99022 15.6382 6.35313 13.0625H12.6469C12.0098 15.6382 10.7261 17.2188 9.5 17.2188ZM6.11207 11.875C5.87932 10.3002 5.87932 8.69978 6.11207 7.125H12.8879C13.0057 7.91116 13.0641 8.70507 13.0625 9.5C13.0641 10.2949 13.0057 11.0888 12.8879 11.875H6.11207ZM1.78125 9.5C1.78168 8.69342 1.90912 7.89194 2.15888 7.125H4.91982C4.6934 8.70024 4.6934 10.2998 4.91982 11.875H2.15888C1.90912 11.1081 1.78168 10.3066 1.78125 9.5ZM9.5 1.78125C10.7261 1.78125 12.0098 3.36181 12.6469 5.9375H6.35313C6.99022 3.36181 8.27391 1.78125 9.5 1.78125ZM14.0802 7.125H16.8411C17.3445 8.66833 17.3445 10.3317 16.8411 11.875H14.0802C14.1928 11.0883 14.2495 10.2947 14.25 9.5C14.2495 8.70532 14.1928 7.91167 14.0802 7.125ZM16.3406 5.9375H13.8664C13.6022 4.6461 13.0841 3.42005 12.3423 2.33047C14.0631 3.01673 15.4814 4.29624 16.3406 5.9375ZM6.65772 2.33047C5.91587 3.42005 5.3978 4.6461 5.13357 5.9375H2.65941C3.51864 4.29624 4.93695 3.01673 6.65772 2.33047ZM2.65941 13.0625H5.13357C5.3978 14.3539 5.91587 15.58 6.65772 16.6695C4.93695 15.9833 3.51864 14.7038 2.65941 13.0625ZM12.3423 16.6695C13.0841 15.58 13.6022 14.3539 13.8664 13.0625H16.3406C15.4814 14.7038 14.0631 15.9833 12.3423 16.6695Z" fill="#035CA2"/>
</g>
<defs>
<clipPath id="clip0_245_3437">
<rect width="19" height="19" fill="white"/>
</clipPath>
</defs>
</svg>
